<?xml version="1.0" encoding="UTF-8" standalone="no"?>
<!DOCTYPE svg PUBLIC "-//W3C//DTD SVG 1.1//EN" "http://www.w3.org/Graphics/SVG/1.1/DTD/svg11.dtd">
<svg width="100%" height="100%" viewBox="0 0 2575 2622" version="1.1" xmlns="http://www.w3.org/2000/svg" xmlns:xlink="http://www.w3.org/1999/xlink" xml:space="preserve" xmlns:serif="http://www.serif.com/" style="fill-rule:evenodd;clip-rule:evenodd;stroke-linecap:round;stroke-linejoin:round;stroke-miterlimit:1.5;">
    <g transform="matrix(1,0,0,1,-569.154,-7894.25)">
        <g transform="matrix(1.55938,0,0,0.856753,-821.522,1143.69)">
            <path d="M1449.28,8223.56C1449.28,8169.09 1456.7,8064.42 1428.08,8035.8C1419.4,8027.11 1422.02,7999.46 1422.02,7999.46C1422.02,7999.46 1423.62,8005.69 1425.05,8008.54C1427.19,8012.83 1434.27,8029.88 1437.16,8032.77C1454.82,8050.42 1460.23,8095.2 1473.51,8108.48C1477.27,8112.24 1520.06,8173.98 1512.87,8181.16C1503.14,8190.89 1466.89,8211.44 1452.31,8211.44" style="fill:rgb(46,46,46);stroke:rgb(46,46,46);stroke-width:4.82px;"/>
        </g>
        <g transform="matrix(1,0,0,1,25.196,-34.302)">
            <path d="M1552.24,8144.82C1552.24,8128.65 1527.39,8001.86 1524.99,7999.46C1521.99,7996.46 1515.9,7982.9 1515.9,7978.26C1515.9,7973.88 1511.12,7964.87 1512.87,7963.12C1519.4,7956.59 1532.62,7979.84 1534.07,7981.29C1551.6,7998.81 1640.3,8129.68 1552.24,8129.68" style="fill:rgb(46,46,46);stroke:rgb(46,46,46);stroke-width:6.06px;"/>
        </g>
        <g transform="matrix(1,0,0,1,25.196,-34.302)">
            <path d="M1643.09,8123.62C1643.09,8066.08 1627.95,8029.21 1627.95,7972.2C1627.95,7961.05 1624.92,7938.89 1624.92,7938.89C1624.92,7938.89 1627.79,7947.81 1630.98,7951C1659.88,7979.91 1671.75,8022.06 1697.6,8047.91C1704.16,8054.47 1694.07,8077.69 1700.63,8084.25C1701.49,8085.11 1711.34,8097.78 1706.69,8102.42C1699.12,8109.99 1674.89,8100.91 1667.32,8108.48C1661.93,8113.87 1657.12,8117.56 1646.12,8117.56" style="fill:rgb(46,46,46);stroke:rgb(46,46,46);stroke-width:6.06px;"/>
        </g>
        <g transform="matrix(-1.24211,-0.451935,-0.399122,1.09695,7019.27,-139.752)">
            <path d="M1449.28,8223.56C1449.28,8169.09 1456.7,8064.42 1428.08,8035.8C1419.4,8027.11 1422.02,7999.46 1422.02,7999.46C1422.02,7999.46 1423.62,8005.69 1425.05,8008.54C1427.19,8012.83 1434.27,8029.88 1437.16,8032.77C1454.82,8050.42 1460.23,8095.2 1473.51,8108.48C1477.27,8112.24 1520.06,8173.98 1512.87,8181.16C1503.14,8190.89 1466.89,8211.44 1452.31,8211.44" style="fill:rgb(46,46,46);stroke:rgb(46,46,46);stroke-width:4.86px;"/>
        </g>
        <g transform="matrix(-0.796541,-0.289818,-0.341917,0.93973,5874.4,907.799)">
            <path d="M1643.09,8123.62C1643.09,8066.08 1627.95,8029.21 1627.95,7972.2C1627.95,7961.05 1624.92,7938.89 1624.92,7938.89C1624.92,7938.89 1627.79,7947.81 1630.98,7951C1659.88,7979.91 1671.75,8022.06 1697.6,8047.91C1704.16,8054.47 1694.07,8077.69 1700.63,8084.25C1701.49,8085.11 1711.34,8097.78 1706.69,8102.42C1699.12,8109.99 1674.89,8100.91 1667.32,8108.48C1661.93,8113.87 1657.12,8117.56 1646.12,8117.56" style="fill:rgb(46,46,46);stroke:rgb(46,46,46);stroke-width:6.54px;"/>
        </g>
        <g transform="matrix(1.61119,-0.0550064,0.0331606,0.971307,-1082.59,275.988)">
            <path d="M1449.28,8223.56C1449.28,8169.09 1456.7,8064.42 1428.08,8035.8C1419.4,8027.11 1422.02,7999.46 1422.02,7999.46C1422.02,7999.46 1423.62,8005.69 1425.05,8008.54C1427.19,8012.83 1434.27,8029.88 1437.16,8032.77C1454.82,8050.42 1460.23,8095.2 1473.51,8108.48C1477.27,8112.24 1520.06,8173.98 1512.87,8181.16C1503.14,8190.89 1466.89,8211.44 1452.31,8211.44" style="fill:rgb(46,46,46);stroke:rgb(46,46,46);stroke-width:4.56px;"/>
        </g>
        <g transform="matrix(1.03323,-0.0352746,0.0284077,0.832092,-168.647,1390.97)">
            <path d="M1552.24,8144.82C1552.24,8128.65 1527.39,8001.86 1524.99,7999.46C1521.99,7996.46 1515.9,7982.9 1515.9,7978.26C1515.9,7973.88 1511.12,7964.87 1512.87,7963.12C1519.4,7956.59 1532.62,7979.84 1534.07,7981.29C1551.6,7998.81 1640.3,8129.68 1552.24,8129.68" style="fill:rgb(46,46,46);stroke:rgb(46,46,46);stroke-width:6.46px;"/>
        </g>
        <g transform="matrix(1.03323,-0.0352746,0.0284077,0.832092,-168.647,1390.97)">
            <path d="M1643.09,8123.62C1643.09,8066.08 1627.95,8029.21 1627.95,7972.2C1627.95,7961.05 1624.92,7938.89 1624.92,7938.89C1624.92,7938.89 1627.79,7947.81 1630.98,7951C1659.88,7979.91 1671.75,8022.06 1697.6,8047.91C1704.16,8054.47 1694.07,8077.69 1700.63,8084.25C1701.49,8085.11 1711.34,8097.78 1706.69,8102.42C1699.12,8109.99 1674.89,8100.91 1667.32,8108.48C1661.93,8113.87 1657.12,8117.56 1646.12,8117.56" style="fill:rgb(46,46,46);stroke:rgb(46,46,46);stroke-width:6.46px;"/>
        </g>
        <g transform="matrix(-1.29622,-0.332236,-0.381223,0.926846,7054.85,1056.51)">
            <path d="M1449.28,8223.56C1449.28,8169.09 1456.7,8064.42 1428.08,8035.8C1419.4,8027.11 1422.02,7999.46 1422.02,7999.46C1422.02,7999.46 1423.62,8005.69 1425.05,8008.54C1427.19,8012.83 1434.27,8029.88 1437.16,8032.77C1454.82,8050.42 1460.23,8095.2 1473.51,8108.48C1477.27,8112.24 1520.06,8173.98 1512.87,8181.16C1503.14,8190.89 1466.89,8211.44 1452.31,8211.44" style="fill:rgb(46,46,46);stroke:rgb(46,46,46);stroke-width:4.82px;"/>
        </g>
        <g transform="matrix(-0.831243,-0.213057,-0.326583,0.794003,5901.69,1968.56)">
            <path d="M1552.24,8144.82C1552.24,8128.65 1527.39,8001.86 1524.99,7999.46C1521.99,7996.46 1515.9,7982.9 1515.9,7978.26C1515.9,7973.88 1511.12,7964.87 1512.87,7963.12C1519.4,7956.59 1532.62,7979.84 1534.07,7981.29C1551.6,7998.81 1640.3,8129.68 1552.24,8129.68" style="fill:rgb(46,46,46);stroke:rgb(46,46,46);stroke-width:6.62px;"/>
        </g>
        <g transform="matrix(-0.831243,-0.213057,-0.326583,0.794003,5901.69,1968.56)">
            <path d="M1643.09,8123.62C1643.09,8066.08 1627.95,8029.21 1627.95,7972.2C1627.95,7961.05 1624.92,7938.89 1624.92,7938.89C1624.92,7938.89 1627.79,7947.81 1630.98,7951C1659.88,7979.91 1671.75,8022.06 1697.6,8047.91C1704.16,8054.47 1694.07,8077.69 1700.63,8084.25C1701.49,8085.11 1711.34,8097.78 1706.69,8102.42C1699.12,8109.99 1674.89,8100.91 1667.32,8108.48C1661.93,8113.87 1657.12,8117.56 1646.12,8117.56" style="fill:rgb(46,46,46);stroke:rgb(46,46,46);stroke-width:6.62px;"/>
        </g>
        <g transform="matrix(0.877895,0,0,0.91431,-2169.04,4768.07)">
            <path d="M3169.39,5268.01C3161.05,5273.85 3163.15,5324.33 3162.69,5332.42C3161.51,5352.84 3107.71,5487.48 3144.43,5505.84C3171.81,5519.53 3205.09,5456.14 3217.45,5443.77C3225.67,5435.56 3223.84,5417.3 3232.06,5409.09C3232.66,5408.48 3239.29,5439.98 3241.18,5443.77C3246.54,5454.48 3259.89,5507.44 3277.7,5498.54C3309.02,5482.88 3292.3,5349.69 3292.3,5310.51" style="fill:rgb(46,46,46);stroke:rgb(46,46,46);stroke-width:24.64px;"/>
        </g>
        <g transform="matrix(0.556388,0,0,0.420498,-674.046,7281.99)">
            <path d="M5350.36,6349.21C5458.27,6349.21 5645.35,6402.48 5720.24,6327.6C5731.37,6316.46 5764.51,6276.19 5781.52,6259.18C5800.27,6240.43 5836.17,6217.71 5859.51,6194.37C5904.78,6149.1 5908.93,6132.9 5953.55,6088.28C5957.08,6084.75 6010.4,6022.7 6012.72,6018.06C6053.83,5935.84 6311.05,5942.13 6341.49,5911.69C6409.89,5843.3 6495.1,5684.59 6564.38,5615.31C6573.66,5606.02 6608.04,5393.02 6617.32,5383.74C6676.19,5324.87 6597.08,5237.93 6653.49,5181.52C6668.4,5166.61 6632.54,5109.71 6647.91,5094.35C6713.08,5029.18 6636.6,4966.27 6679.88,4872.94C6700.05,4829.44 6692.85,4769.81 6723.06,4739.6C6727.5,4735.15 6720.13,4717.59 6723.06,4711.74C6768.67,4620.51 6785.72,4231.25 6823.34,4193.64C6837.82,4179.15 6823.83,4120.22 6834.48,4098.93C6862.9,4042.09 6813.76,3660.38 6795.48,3642.1C6780.54,3627.16 6797.77,3577.54 6784.34,3564.1C6764.67,3544.43 6766.98,3518.89 6745.34,3497.25C6713.49,3465.4 6658.66,3405 6622.78,3369.12C6593.59,3339.93 6397.47,3360.44 6377.65,3380.26C6330.88,3427.03 6301.08,3495.83 6255.09,3541.82C6141.71,3655.19 6036.28,3777.34 5920.82,3892.8C5882.56,3931.06 5883.88,4085.06 5841.34,4106.33C5825.4,4114.3 5822.73,4131.13 5822.73,4131.13L5802.56,4241.06L5350.36,6349.21Z" style="fill:rgb(85,73,61);stroke:rgb(46,46,46);stroke-width:41.4px;"/>
        </g>
        <g transform="matrix(0.556388,0,0,0.420498,-674.046,7281.99)">
            <path d="M5965.39,3987.51C6150,3987.51 6304.38,3901.58 6433.36,3837.09C6450.18,3828.68 6596.08,3819.21 6600.49,3814.8C6604.49,3810.8 6647.38,3798.09 6650.63,3798.09" style="fill:none;stroke:rgb(46,46,46);stroke-width:19.66px;"/>
        </g>
        <g transform="matrix(0.556388,0,0,0.420498,-674.046,7281.99)">
            <path d="M6528.07,3681.1C6513,3691.64 6516.93,3710.97 6516.93,3731.24C6516.93,3747.88 6557.35,3922.08 6567.07,3931.8C6568.38,3933.11 6567.07,3935.51 6567.07,3937.37C6567.07,3982.18 6580,4111.86 6600.49,4132.35L6600.49,4143.49C6600.49,4236 6622.78,4334.26 6622.78,4416.48" style="fill:none;stroke:rgb(46,46,46);stroke-width:19.66px;"/>
        </g>
        <g transform="matrix(0.556388,0,0,0.420498,-674.046,7281.99)">
            <path d="M5959.82,4399.77C5991.54,4399.77 6190.57,4414.15 6204.95,4399.77C6219.9,4384.81 6260.39,4394.46 6277.37,4377.48C6300.98,4353.87 6349.82,4360.74 6372.08,4338.48C6421.03,4289.53 6508.62,4279.93 6561.49,4227.06C6576.18,4212.37 6658.51,4213.62 6672.92,4199.21C6677.93,4194.19 6711.53,4176.92 6717.48,4176.92" style="fill:none;stroke:rgb(46,46,46);stroke-width:19.66px;"/>
        </g>
        <g transform="matrix(0.556388,0,0,0.420498,-674.046,7281.99)">
            <path d="M6227.23,3736.81C6227.23,3813.86 6176.69,4215.11 6199.38,4260.49C6215.08,4291.9 6232.75,4438.71 6243.94,4449.9C6265.94,4471.9 6260.36,4510.59 6277.37,4544.61C6356.85,4703.58 6327.51,4966.59 6327.51,5179.72" style="fill:none;stroke:rgb(46,46,46);stroke-width:19.66px;"/>
        </g>
        <g transform="matrix(0.556388,0,0,0.420498,-674.046,7281.99)">
            <path d="M5987.67,4761.88C5996.65,4752.91 6293.45,4751.38 6372.08,4672.75C6378.52,4666.31 6411.86,4661.61 6422.22,4661.61C6435.95,4661.61 6449.06,4656.03 6455.64,4656.03" style="fill:none;stroke:rgb(46,46,46);stroke-width:19.66px;"/>
        </g>
        <g transform="matrix(0.556388,0,0,0.420498,-674.046,7281.99)">
            <path d="M6015.53,3915.08C6045.18,3944.73 6039.44,4429.25 6076.81,4466.62C6081.56,4471.36 6076.81,4858.67 6076.81,4901.16" style="fill:none;stroke:rgb(46,46,46);stroke-width:19.66px;"/>
        </g>
        <g transform="matrix(0.556388,0,0,0.420498,-674.046,7281.99)">
            <path d="M6132.52,5168.57C6195.86,5105.23 6383.55,5129.25 6455.64,5057.15C6459.86,5052.94 6458.06,5046.01 6466.79,5046.01" style="fill:none;stroke:rgb(46,46,46);stroke-width:19.66px;"/>
        </g>
        <g transform="matrix(-0.92044,0,0,0.802225,5673.3,5272.13)">
            <path d="M3210.62,5327.33C3178.7,5282.92 3146.77,5269.52 3114.85,5297.27L3076.75,5507.04C3142.77,5488.38 3128.86,5503.2 3143.44,5447.56C3152.18,5519.61 3164.73,5531.22 3193.74,5501.07L3210.62,5327.33Z" style="fill:rgb(46,46,46);stroke:rgb(46,46,46);stroke-width:19.64px;"/>
        </g>
        <g transform="matrix(-0.686265,-0.654472,-0.590334,0.758864,8180.83,8080.76)">
            <path d="M4239.28,4764.77L3558.41,4947.54C3594.74,4966.78 3617.09,5002.28 3623.82,5055.93L3953.38,5041.09L4239.28,4764.77Z" style="fill:rgb(115,69,51);stroke:rgb(46,46,46);stroke-width:22.73px;"/>
        </g>
        <g transform="matrix(0.755493,-0.650725,0.648112,0.75246,-5277.02,8196.94)">
            <path d="M4222.18,4743.67L3544.56,4919.88C3584.32,4952.77 3611.55,4997.37 3623.82,5055.93L3953.38,5041.09L4222.18,4743.67Z" style="fill:rgb(115,69,51);stroke:rgb(46,46,46);stroke-width:20.69px;"/>
        </g>
        <g transform="matrix(0.379274,0,0,0.487886,-108.859,7129.48)">
            <path d="M3792.06,6381.72C3720.73,6381.72 3563.76,6506.13 3530.83,6539.06C3507.12,6562.77 3508.26,6611.77 3486.26,6633.77C3452.48,6667.55 3503.03,6700.62 3541.97,6700.62C3607.13,6700.62 3480.79,6773.14 3508.55,6800.9C3548.03,6840.38 3675.68,6812.04 3675.68,6812.04C3675.68,6812.04 3667.47,6814.67 3664.54,6817.61C3636.16,6845.99 3611.95,6894.38 3658.97,6917.89C3703.1,6939.95 3922.54,6793.59 3948.66,6767.47C3961.17,6754.96 3987.46,6750.96 3998.8,6739.61C4010.34,6728.08 4125.11,6579.37 4125.11,6566.24L3792.06,6381.72Z" style="fill:rgb(46,46,46);stroke:rgb(46,46,46);stroke-width:46.72px;"/>
        </g>
        <g transform="matrix(0.561672,0,0,0.645515,-752.807,6046.6)">
            <path d="M5030.86,6600.63C5048.39,6618.15 5037.32,6641.64 5051.73,6656.05C5087,6691.31 5109.34,6758.23 5146.44,6795.33C5165.21,6814.09 5200.59,6816.83 5224.44,6828.75C5256,6844.53 5245.07,6734.04 5246.72,6734.04C5267.69,6734.04 5259.28,6746.61 5269.01,6756.33C5270.32,6757.64 5272.72,6756.33 5274.58,6756.33C5287.82,6756.33 5366.86,6803.33 5386,6784.18C5392.5,6777.68 5390.64,6762.83 5397.14,6756.33C5412.11,6741.36 5380.43,6695.05 5380.43,6695.05C5380.43,6695.05 5397.46,6689.79 5402.71,6695.05C5414.88,6707.22 5474.52,6723.52 5491.85,6706.19C5500.57,6697.47 5489.06,6647.69 5486.28,6644.91C5463.46,6622.09 5299.19,6416.49 5296.86,6416.49L5030.86,6600.63Z" style="fill:rgb(46,46,46);stroke:rgb(46,46,46);stroke-width:33.74px;"/>
        </g>
        <g transform="matrix(-0.996034,0,0,0.898379,6311.02,5504.56)">
            <path d="M3868.59,2918.54C3956.15,2944.24 3974.48,2949.37 4032.1,3108.58C4067.82,3207.28 3973.55,3298.9 3868.59,3298.9C3763.62,3298.9 3694.11,3212.5 3678.41,3108.72C3658.02,2973.96 3727.59,2877.15 3868.59,2918.54Z" style="fill:rgb(115,69,51);stroke:rgb(46,46,46);stroke-width:21.53px;"/>
        </g>
        <g transform="matrix(-0.996034,0,0,0.898379,6260.7,5522.19)">
            <path d="M3798.86,3084.51C3838.65,3117.78 3848.59,3197.29 3868.71,3220.09C3907.85,3264.43 3828.33,3289.39 3779.9,3279.52C3723.2,3267.96 3703.45,3242.54 3671.25,3195.91C3610.38,3107.76 3635.89,3076.16 3684.73,3069.04C3716.13,3064.46 3751.36,3044.78 3798.86,3084.51Z" style="fill:rgb(230,199,119);stroke:rgb(46,46,46);stroke-width:21.53px;"/>
        </g>
        <g transform="matrix(1,0,0,1,-2788.41,5183.89)">
            <path d="M3868.59,2918.54C3956.15,2944.24 3974.48,2949.37 4032.1,3108.58C4067.82,3207.28 3973.55,3298.9 3868.59,3298.9C3763.62,3298.9 3694.11,3212.5 3678.41,3108.72C3658.02,2973.96 3727.59,2877.15 3868.59,2918.54Z" style="fill:rgb(115,69,51);stroke:rgb(46,46,46);stroke-width:20.42px;"/>
        </g>
        <g transform="matrix(1,0,0,1,-2753.03,5203.27)">
            <path d="M3798.86,3084.51C3838.65,3117.78 3848.59,3197.29 3868.71,3220.09C3907.85,3264.43 3828.33,3289.39 3779.9,3279.52C3723.2,3267.96 3703.45,3242.54 3671.25,3195.91C3610.38,3107.76 3635.89,3076.16 3684.73,3069.04C3716.13,3064.46 3751.36,3044.78 3798.86,3084.51Z" style="fill:rgb(230,199,119);stroke:rgb(46,46,46);stroke-width:20.42px;"/>
        </g>
        <path d="M1337.53,10295.9C1177.56,10086 995.611,9696.5 939.34,9225.23C907.716,8960.39 1045.38,8710.31 1126.17,8514.54C1222.01,8282.3 1390.3,8122.73 1562.31,8050.56C1623.19,8025.01 1671.83,8018.76 1746.26,8018.76C1838.95,8018.76 1916.11,8039.59 1999.75,8078.12C2174.31,8158.54 2306.62,8322.1 2411.98,8528.2C2513.94,8727.67 2557.92,8971.71 2522.14,9233.96C2460.1,9688.64 2368.92,10076.5 2158.26,10284" style="fill:rgb(115,69,51);stroke:rgb(46,46,46);stroke-width:20.42px;"/>
        <g transform="matrix(0.735053,0,0,0.735053,-1602.11,5968.17)">
            <path d="M4322.53,4067.28C4322.53,4034.79 4393.62,4032.7 4409.24,4017.08C4412.67,4013.65 4424.08,4018.22 4427.5,4014.8C4443.83,3998.47 4669.11,3980.29 4692.2,4003.39C4694.1,4005.29 4701.71,4001.48 4703.61,4003.39C4716.42,4016.2 4758.74,4027.53 4778.91,4037.61C4805.73,4051.02 4842.1,4048.31 4861.06,4067.28C4861.34,4067.55 4853.09,4074.12 4851.94,4074.12C4837.34,4074.12 4832.17,4090.1 4822.27,4090.1L4817.71,4090.1C4800.91,4106.89 4772.57,4114.7 4756.1,4131.17C4748.08,4139.19 4722.09,4140.08 4712.74,4149.43C4703.51,4158.66 4680.09,4154.69 4669.38,4165.4C4658.06,4176.72 4637.07,4181.73 4626.03,4192.78C4598.1,4220.71 4557.03,4241.25 4530.19,4268.09C4522.48,4275.8 4515.96,4290.03 4505.09,4295.47C4503.66,4296.18 4495.42,4285.27 4493.68,4281.78C4484.84,4264.11 4468.19,4251.73 4452.6,4236.14C4443.44,4226.98 4439.07,4208.92 4429.78,4199.63C4423.7,4193.54 4424.46,4180.61 4418.37,4174.53C4403.96,4160.12 4317.97,4084.46 4317.97,4074.12" style="fill:rgb(46,46,46);stroke:rgb(46,46,46);stroke-width:27.78px;"/>
        </g>
        <g transform="matrix(0.732628,0,0,0.732628,-1597.61,5978.62)">
            <path d="M4511.93,4295.47C4511.93,4316.51 4517.55,4485.92 4521.06,4489.43C4524.76,4493.14 4521.06,4520.12 4521.06,4525.94C4521.06,4529.26 4528.38,4552.85 4523.34,4557.89C4519.54,4561.69 4504.32,4554.09 4500.52,4557.89C4464.14,4594.27 4252.76,4599.93 4213,4560.17C4209.59,4556.76 4197.81,4558.68 4194.74,4555.61C4184.61,4545.48 4169.05,4539.04 4158.23,4528.23C4153.53,4523.52 4137.37,4449.54 4131.32,4449.54" style="fill:none;stroke:rgb(46,46,46);stroke-width:30.14px;"/>
        </g>
        <g transform="matrix(0.60047,0,0,0.60047,-1001.27,6575.85)">
            <path d="M4527.9,4569.3C4543.04,4569.3 4571.87,4576.76 4580.39,4585.27C4583.31,4588.19 4613.24,4586.87 4619.18,4589.84C4623.53,4592.01 4643.16,4595.45 4666.18,4598.23C4702.55,4602.62 4747.39,4605.39 4753.81,4598.96C4757.24,4595.54 4770.93,4602.39 4774.35,4598.96C4784.19,4589.13 4828.14,4593.1 4835.96,4585.27C4848.98,4572.26 4943.41,4553.23 4966.03,4541.92C4976.37,4536.75 5073.25,4434.23 5083.63,4434.23" style="fill:none;stroke:rgb(46,46,46);stroke-width:36.78px;"/>
        </g>
        <g transform="matrix(1.21196,0,0,1,-3754.68,4765.77)">
            <path d="M4515.23,4564.73C4460.3,4579.6 4409.68,4574.21 4359.09,4573.9L4366.15,4781.86L4505.97,4781.86L4515.23,4564.73Z" style="fill:white;stroke:rgb(46,46,46);stroke-width:15.26px;"/>
        </g>
        <g transform="matrix(0.968963,0,0,1.00928,-2651.23,4720.69)">
            <path d="M4716.52,4576.51C4649.76,4579.83 4588.28,4587.07 4524.94,4567.44L4508.78,4773.67C4567.92,4789.17 4641.14,4781.24 4700.28,4773.67C4702.47,4714.67 4714.33,4631.3 4716.52,4576.51Z" style="fill:white;stroke:rgb(46,46,46);stroke-width:20.64px;"/>
        </g>
        <path d="M1337.53,10286.8C1337.53,9945.97 1521.4,9669.23 1747.89,9669.23C1974.38,9669.23 2158.26,9945.97 2158.26,10286.8L2158.26,10284C2034.54,10381.9 1891.95,10437.8 1740.2,10437.8C1594.7,10437.8 1457.62,10386.4 1337.53,10295.9" style="fill:rgb(230,199,119);stroke:rgb(46,46,46);stroke-width:20.42px;"/>
        <g transform="matrix(0.683985,0,0,0.785328,-183.421,2829.52)">
            <ellipse cx="2584.69" cy="7367.37" rx="151.418" ry="145.106" style="fill:white;stroke:rgb(46,46,46);stroke-width:27.72px;"/>
        </g>
        <g transform="matrix(0.831011,0,0,0.954138,-562.639,1584.69)">
            <ellipse cx="2589.42" cy="7361.48" rx="61.514" ry="57.204" style="fill:rgb(46,46,46);stroke:rgb(46,46,46);stroke-width:22.82px;"/>
        </g>
        <g transform="matrix(0.683985,0,0,0.785328,128.048,2822.76)">
            <ellipse cx="2584.69" cy="7367.37" rx="151.418" ry="145.106" style="fill:white;stroke:rgb(46,46,46);stroke-width:27.72px;"/>
        </g>
        <g transform="matrix(0.831011,0,0,0.954138,-251.17,1577.93)">
            <ellipse cx="2589.42" cy="7361.48" rx="61.514" ry="57.204" style="fill:rgb(46,46,46);stroke:rgb(46,46,46);stroke-width:22.82px;"/>
        </g>
    </g>
</svg>
