<?xml version="1.0" standalone="no"?>
<!DOCTYPE svg PUBLIC "-//W3C//DTD SVG 20010904//EN"
 "http://www.w3.org/TR/2001/REC-SVG-20010904/DTD/svg10.dtd">
<svg version="1.0" xmlns="http://www.w3.org/2000/svg"
 width="779.000000pt" height="780.000000pt" viewBox="0 0 779.000000 780.000000"
 preserveAspectRatio="xMidYMid meet">

<g transform="translate(0.000000,780.000000) scale(0.100000,-0.100000)"
fill="#000000" stroke="none">
<path d="M3655 7793 c-695 -46 -1358 -272 -1930 -657 -813 -548 -1388 -1375
-1616 -2326 -209 -867 -113 -1782 272 -2588 542 -1136 1602 -1944 2839 -2162
690 -121 1387 -56 2050 192 158 59 433 190 575 273 947 554 1614 1464 1850
2525 190 855 90 1739 -286 2528 -542 1136 -1602 1944 -2839 2162 -285 50 -644
71 -915 53z m-1628 -1394 c37 -14 90 -65 113 -110 11 -20 37 -87 58 -150 22
-63 50 -136 63 -162 22 -44 22 -50 9 -75 -21 -36 -99 -64 -163 -58 -124 13
-202 83 -296 267 -72 140 -78 227 -18 257 67 34 185 50 234 31z m3652 -10
c100 -21 122 -72 78 -179 -26 -63 -112 -193 -153 -232 -94 -88 -301 -99 -344
-18 -9 16 -6 29 15 64 14 24 36 74 49 112 55 161 94 220 170 256 44 20 83 20
185 -3z m-1571 -615 c183 -76 210 -403 43 -531 -73 -56 -149 -56 -223 0 -122
93 -145 327 -45 458 59 78 146 106 225 73z m-729 -23 c45 -23 98 -81 118 -129
96 -231 -74 -506 -261 -424 -90 40 -145 130 -153 252 -15 216 145 378 296 301z
m217 -2313 c-3 -13 -8 -104 -11 -203 -3 -99 -8 -213 -11 -252 l-6 -73 -178 0
-178 0 -6 148 c-3 81 -9 200 -12 265 l-6 117 134 1 c73 0 156 4 183 9 90 13
96 13 91 -12z m199 1 c46 -6 122 -8 178 -4 l97 7 0 -23 c0 -36 -32 -484 -34
-486 -2 -2 -40 -8 -86 -14 -91 -12 -285 -8 -300 7 -6 6 -3 111 7 272 17 257
18 263 38 257 11 -3 56 -10 100 -16z m101 -895 c236 -54 447 -240 588 -515 94
-184 153 -406 171 -645 l7 -90 -73 -49 c-107 -72 -259 -146 -386 -188 -405
-134 -829 -92 -1214 121 -52 29 -106 63 -120 75 l-26 22 8 122 c24 364 155
692 363 911 70 73 199 168 271 198 126 52 286 67 411 38z"/>
<path d="M4016 5680 c-59 -18 -105 -90 -106 -165 0 -82 74 -175 139 -175 42 0
94 34 118 76 32 55 32 148 1 194 -43 62 -97 87 -152 70z"/>
<path d="M3260 5653 c-68 -35 -103 -127 -81 -211 38 -138 190 -161 253 -38 72
141 -47 313 -172 249z"/>
</g>
</svg>
