<svg xmlns="http://www.w3.org/2000/svg" xml:space="preserve" fill-rule="evenodd" stroke-linecap="round" stroke-linejoin="round" stroke-miterlimit="1.5" clip-rule="evenodd" viewBox="0 0 2575 2622">
  <path fill="#2e2e2e" stroke="#2e2e2e" stroke-width="4.82" d="M1449.28 8223.56c0-54.47 7.42-159.14-21.2-187.76-8.68-8.69-6.06-36.34-6.06-36.34s1.6 6.23 3.03 9.08c2.14 4.29 9.22 21.34 12.11 24.23 17.66 17.65 23.07 62.43 36.35 75.71 3.76 3.76 46.55 65.5 39.36 72.68-9.73 9.73-45.98 30.28-60.56 30.28" transform="matrix(1.55938 0 0 .85675 -1390.676 -6750.56)"/>
  <path fill="#2e2e2e" stroke="#2e2e2e" stroke-width="6.06" d="M1008.282 216.268c0-16.17-24.85-142.96-27.25-145.36-3-3-9.09-16.56-9.09-21.2 0-4.38-4.78-13.39-3.03-15.14 6.53-6.53 19.75 16.72 21.2 18.17 17.53 17.52 106.23 148.39 18.17 148.39M1099.132 195.068c0-57.54-15.14-94.41-15.14-151.42 0-11.15-3.03-33.31-3.03-33.31s2.87 8.92 6.06 12.11c28.9 28.91 40.77 71.06 66.62 96.91 6.56 6.56-3.53 29.78 3.03 36.34.86.86 10.71 13.53 6.06 18.17-7.57 7.57-31.8-1.51-39.37 6.06-5.39 5.39-10.2 9.08-21.2 9.08"/>
  <path fill="#2e2e2e" stroke="#2e2e2e" stroke-width="4.86" d="M1449.28 8223.56c0-54.47 7.42-159.14-21.2-187.76-8.68-8.69-6.06-36.34-6.06-36.34s1.6 6.23 3.03 9.08c2.14 4.29 9.22 21.34 12.11 24.23 17.66 17.65 23.07 62.43 36.35 75.71 3.76 3.76 46.55 65.5 39.36 72.68-9.73 9.73-45.98 30.28-60.56 30.28" transform="matrix(-1.24211 -.45193 -.39912 1.09695 6450.116 -8034.002)"/>
  <path fill="#2e2e2e" stroke="#2e2e2e" stroke-width="6.54" d="M1643.09 8123.62c0-57.54-15.14-94.41-15.14-151.42 0-11.15-3.03-33.31-3.03-33.31s2.87 8.92 6.06 12.11c28.9 28.91 40.77 71.06 66.62 96.91 6.56 6.56-3.53 29.78 3.03 36.34.86.86 10.71 13.53 6.06 18.17-7.57 7.57-31.8-1.51-39.37 6.06-5.39 5.39-10.2 9.08-21.2 9.08" transform="matrix(-.79654 -.28982 -.34192 .93973 5305.246 -6986.451)"/>
  <path fill="#2e2e2e" stroke="#2e2e2e" stroke-width="4.56" d="M1449.28 8223.56c0-54.47 7.42-159.14-21.2-187.76-8.68-8.69-6.06-36.34-6.06-36.34s1.6 6.23 3.03 9.08c2.14 4.29 9.22 21.34 12.11 24.23 17.66 17.65 23.07 62.43 36.35 75.71 3.76 3.76 46.55 65.5 39.36 72.68-9.73 9.73-45.98 30.28-60.56 30.28" transform="matrix(1.61119 -.055 .03316 .9713 -1651.744 -7618.262)"/>
  <path fill="#2e2e2e" stroke="#2e2e2e" stroke-width="6.46" d="M1552.24 8144.82c0-16.17-24.85-142.96-27.25-145.36-3-3-9.09-16.56-9.09-21.2 0-4.38-4.78-13.39-3.03-15.14 6.53-6.53 19.75 16.72 21.2 18.17 17.53 17.52 106.23 148.39 18.17 148.39M1643.09 8123.62c0-57.54-15.14-94.41-15.14-151.42 0-11.15-3.03-33.31-3.03-33.31s2.87 8.92 6.06 12.11c28.9 28.91 40.77 71.06 66.62 96.91 6.56 6.56-3.53 29.78 3.03 36.34.86.86 10.71 13.53 6.06 18.17-7.57 7.57-31.8-1.51-39.37 6.06-5.39 5.39-10.2 9.08-21.2 9.08" transform="matrix(1.03323 -.03527 .0284 .8321 -737.801 -6503.28)"/>
  <path fill="#2e2e2e" stroke="#2e2e2e" stroke-width="4.82" d="M1449.28 8223.56c0-54.47 7.42-159.14-21.2-187.76-8.68-8.69-6.06-36.34-6.06-36.34s1.6 6.23 3.03 9.08c2.14 4.29 9.22 21.34 12.11 24.23 17.66 17.65 23.07 62.43 36.35 75.71 3.76 3.76 46.55 65.5 39.36 72.68-9.73 9.73-45.98 30.28-60.56 30.28" transform="matrix(-1.29622 -.33224 -.38122 .92685 6485.696 -6837.74)"/>
  <path fill="#2e2e2e" stroke="#2e2e2e" stroke-width="6.62" d="M1552.24 8144.82c0-16.17-24.85-142.96-27.25-145.36-3-3-9.09-16.56-9.09-21.2 0-4.38-4.78-13.39-3.03-15.14 6.53-6.53 19.75 16.72 21.2 18.17 17.53 17.52 106.23 148.39 18.17 148.39M1643.09 8123.62c0-57.54-15.14-94.41-15.14-151.42 0-11.15-3.03-33.31-3.03-33.31s2.87 8.92 6.06 12.11c28.9 28.91 40.77 71.06 66.62 96.91 6.56 6.56-3.53 29.78 3.03 36.34.86.86 10.71 13.53 6.06 18.17-7.57 7.57-31.8-1.51-39.37 6.06-5.39 5.39-10.2 9.08-21.2 9.08" transform="matrix(-.83124 -.21306 -.32658 .794 5332.536 -5925.69)"/>
  <path fill="#2e2e2e" stroke="#2e2e2e" stroke-width="24.64" d="M3169.39 5268.01c-8.34 5.84-6.24 56.32-6.7 64.41-1.18 20.42-54.98 155.06-18.26 173.42 27.38 13.69 60.66-49.7 73.02-62.07 8.22-8.21 6.39-26.47 14.61-34.68.6-.61 7.23 30.89 9.12 34.68 5.36 10.71 18.71 63.67 36.52 54.77 31.32-15.66 14.6-148.85 14.6-188.03" transform="matrix(.8779 0 0 .91431 -2738.194 -3126.18)"/>
  <path fill="#55493d" stroke="#2e2e2e" stroke-width="41.4" d="M5350.36 6349.21c107.91 0 294.99 53.27 369.88-21.61 11.13-11.14 44.27-51.41 61.28-68.42 18.75-18.75 54.65-41.47 77.99-64.81 45.27-45.27 49.42-61.47 94.04-106.09 3.53-3.53 56.85-65.58 59.17-70.22 41.11-82.22 298.33-75.93 328.77-106.37 68.4-68.39 153.61-227.1 222.89-296.38 9.28-9.29 43.66-222.29 52.94-231.57 58.87-58.87-20.24-145.81 36.17-202.22 14.91-14.91-20.95-71.81-5.58-87.17 65.17-65.17-11.31-128.08 31.97-221.41 20.17-43.5 12.97-103.13 43.18-133.34 4.44-4.45-2.93-22.01 0-27.86 45.61-91.23 62.66-480.49 100.28-518.1 14.48-14.49.49-73.42 11.14-94.71 28.42-56.84-20.72-438.55-39-456.83-14.94-14.94 2.29-64.56-11.14-78-19.67-19.67-17.36-45.21-39-66.85-31.85-31.85-86.68-92.25-122.56-128.13-29.19-29.19-225.31-8.68-245.13 11.14-46.77 46.77-76.57 115.57-122.56 161.56-113.38 113.37-218.81 235.52-334.27 350.98-38.26 38.26-36.94 192.26-79.48 213.53-15.94 7.97-18.61 24.8-18.61 24.8l-20.17 109.93-452.2 2108.15Z" transform="matrix(.55639 0 0 .4205 -1243.2 -612.26)"/>
  <path fill="none" stroke="#2e2e2e" stroke-width="19.66" d="M5965.39 3987.51c184.61 0 338.99-85.93 467.97-150.42 16.82-8.41 162.72-17.88 167.13-22.29 4-4 46.89-16.71 50.14-16.71" transform="matrix(.55639 0 0 .4205 -1243.2 -612.26)"/>
  <path fill="none" stroke="#2e2e2e" stroke-width="19.66" d="M6528.07 3681.1c-15.07 10.54-11.14 29.87-11.14 50.14 0 16.64 40.42 190.84 50.14 200.56 1.31 1.31 0 3.71 0 5.57 0 44.81 12.93 174.49 33.42 194.98v11.14c0 92.51 22.29 190.77 22.29 272.99" transform="matrix(.55639 0 0 .4205 -1243.2 -612.26)"/>
  <path fill="none" stroke="#2e2e2e" stroke-width="19.66" d="M5959.82 4399.77c31.72 0 230.75 14.38 245.13 0 14.95-14.96 55.44-5.31 72.42-22.29 23.61-23.61 72.45-16.74 94.71-39 48.95-48.95 136.54-58.55 189.41-111.42 14.69-14.69 97.02-13.44 111.43-27.85 5.01-5.02 38.61-22.29 44.56-22.29" transform="matrix(.55639 0 0 .4205 -1243.2 -612.26)"/>
  <path fill="none" stroke="#2e2e2e" stroke-width="19.66" d="M6227.23 3736.81c0 77.05-50.54 478.3-27.85 523.68 15.7 31.41 33.37 178.22 44.56 189.41 22 22 16.42 60.69 33.43 94.71 79.48 158.97 50.14 421.98 50.14 635.11" transform="matrix(.55639 0 0 .4205 -1243.2 -612.26)"/>
  <path fill="none" stroke="#2e2e2e" stroke-width="19.66" d="M5987.67 4761.88c8.98-8.97 305.78-10.5 384.41-89.13 6.44-6.44 39.78-11.14 50.14-11.14 13.73 0 26.84-5.58 33.42-5.58" transform="matrix(.55639 0 0 .4205 -1243.2 -612.26)"/>
  <path fill="none" stroke="#2e2e2e" stroke-width="19.66" d="M6015.53 3915.08c29.65 29.65 23.91 514.17 61.28 551.54 4.75 4.74 0 392.05 0 434.54M6132.52 5168.57c63.34-63.34 251.03-39.32 323.12-111.42 4.22-4.21 2.42-11.14 11.15-11.14" transform="matrix(.55639 0 0 .4205 -1243.2 -612.26)"/>
  <path fill="#2e2e2e" stroke="#2e2e2e" stroke-width="19.64" d="M3210.62 5327.33c-31.92-44.41-63.85-57.81-95.77-30.06l-38.1 209.77c66.02-18.66 52.11-3.84 66.69-59.48 8.74 72.05 21.29 83.66 50.3 53.51l16.88-173.74Z" transform="matrix(-.92044 0 0 .80222 5104.146 -2622.12)"/>
  <path fill="#734533" stroke="#2e2e2e" stroke-width="22.73" d="m4239.28 4764.77-680.87 182.77c36.33 19.24 58.68 54.74 65.41 108.39l329.56-14.84 285.9-276.32Z" transform="matrix(-.68627 -.65447 -.59033 .75886 7611.676 186.51)"/>
  <path fill="#734533" stroke="#2e2e2e" stroke-width="20.69" d="m4222.18 4743.67-677.62 176.21c39.76 32.89 66.99 77.49 79.26 136.05l329.56-14.84 268.8-297.42Z" transform="matrix(.7555 -.65072 .64811 .75246 -5846.174 302.69)"/>
  <path fill="#2e2e2e" stroke="#2e2e2e" stroke-width="46.72" d="M3792.06 6381.72c-71.33 0-228.3 124.41-261.23 157.34-23.71 23.71-22.57 72.71-44.57 94.71-33.78 33.78 16.77 66.85 55.71 66.85 65.16 0-61.18 72.52-33.42 100.28 39.48 39.48 167.13 11.14 167.13 11.14s-8.21 2.63-11.14 5.57c-28.38 28.38-52.59 76.77-5.57 100.28 44.13 22.06 263.57-124.3 289.69-150.42 12.51-12.51 38.8-16.51 50.14-27.86 11.54-11.53 126.31-160.24 126.31-173.37l-333.05-184.52Z" transform="matrix(.37927 0 0 .48789 -678.013 -764.77)"/>
  <path fill="#2e2e2e" stroke="#2e2e2e" stroke-width="33.74" d="M5030.86 6600.63c17.53 17.52 6.46 41.01 20.87 55.42 35.27 35.26 57.61 102.18 94.71 139.28 18.77 18.76 54.15 21.5 78 33.42 31.56 15.78 20.63-94.71 22.28-94.71 20.97 0 12.56 12.57 22.29 22.29 1.31 1.31 3.71 0 5.57 0 13.24 0 92.28 47 111.42 27.85 6.5-6.5 4.64-21.35 11.14-27.85 14.97-14.97-16.71-61.28-16.71-61.28s17.03-5.26 22.28 0c12.17 12.17 71.81 28.47 89.14 11.14 8.72-8.72-2.79-58.5-5.57-61.28-22.82-22.82-187.09-228.42-189.42-228.42l-266 184.14Z" transform="matrix(.56167 0 0 .64551 -1321.961 -1847.65)"/>
  <path fill="#734533" stroke="#2e2e2e" stroke-width="21.53" d="M3868.59 2918.54c87.56 25.7 105.89 30.83 163.51 190.04 35.72 98.7-58.55 190.32-163.51 190.32-104.97 0-174.48-86.4-190.18-190.18-20.39-134.76 49.18-231.57 190.18-190.18Z" transform="matrix(-.99603 0 0 .89838 5741.866 -2389.69)"/>
  <path fill="#e6c777" stroke="#2e2e2e" stroke-width="21.53" d="M3798.86 3084.51c39.79 33.27 49.73 112.78 69.85 135.58 39.14 44.34-40.38 69.3-88.81 59.43-56.7-11.56-76.45-36.98-108.65-83.61-60.87-88.15-35.36-119.75 13.48-126.87 31.4-4.58 66.63-24.26 114.13 15.47Z" transform="matrix(-.99603 0 0 .89838 5691.546 -2372.06)"/>
  <path fill="#734533" stroke="#2e2e2e" stroke-width="20.42" d="M511.026 208.18c87.56 25.7 105.89 30.83 163.51 190.04 35.72 98.7-58.55 190.32-163.51 190.32-104.97 0-174.48-86.4-190.18-190.18-20.39-134.76 49.18-231.57 190.18-190.18Z"/>
  <path fill="#e6c777" stroke="#2e2e2e" stroke-width="20.42" d="M476.676 393.53c39.79 33.27 49.73 112.78 69.85 135.58 39.14 44.34-40.38 69.3-88.81 59.43-56.7-11.56-76.45-36.98-108.65-83.61-60.87-88.15-35.36-119.75 13.48-126.87 31.4-4.58 66.63-24.26 114.13 15.47Z"/>
  <path fill="#734533" stroke="#2e2e2e" stroke-width="20.42" d="M768.376 2401.65c-159.97-209.9-341.919-599.4-398.19-1070.67-31.624-264.84 106.04-514.92 186.83-710.69 95.84-232.24 264.13-391.81 436.14-463.98 60.88-25.55 109.52-31.8 183.95-31.8 92.69 0 169.85 20.83 253.49 59.36 174.56 80.42 306.87 243.98 412.23 450.08 101.96 199.47 145.94 443.51 110.16 705.76-62.04 454.68-153.22 842.54-363.88 1050.04"/>
  <path fill="#2e2e2e" stroke="#2e2e2e" stroke-width="20.419689" d="M1006.025 1063.586c0-23.882 52.255-25.418 63.736-36.9 2.521-2.52 10.908.839 13.422-1.675 12.004-12.004 177.596-25.367 194.569-8.387 1.396 1.396 6.99-1.404 8.387 0 9.416 9.416 40.523 17.744 55.35 25.153 19.713 9.857 46.447 7.865 60.384 21.81.206.198-5.859 5.027-6.704 5.027-10.732 0-14.532 11.746-21.809 11.746h-3.352c-12.349 12.342-33.18 18.083-45.286 30.189-5.896 5.895-25 6.55-31.872 13.422-6.785 6.785-24 3.866-31.872 11.739-8.321 8.32-23.75 12.003-31.865 20.126-20.53 20.53-50.718 35.628-70.447 55.356-5.668 5.668-10.46 16.127-18.45 20.126-1.051.522-7.108-7.497-8.387-10.063-6.498-12.988-18.737-22.088-30.196-33.548-6.733-6.733-9.945-20.008-16.774-26.836-4.469-4.477-3.91-13.981-8.387-18.45-10.592-10.592-73.8-66.206-73.8-73.807"/>
  <path fill="none" stroke="#2e2e2e" stroke-width="22.0814682" d="M1138.802 1231.352c0 15.414 4.118 139.529 6.69 142.1 2.71 2.718 0 22.484 0 26.748 0 2.433 5.362 19.715 1.67 23.408-2.784 2.784-13.935-2.784-16.719 0-26.653 26.653-181.516 30.8-210.645 1.67-2.498-2.498-11.129-1.091-13.378-3.34-7.422-7.422-18.821-12.14-26.748-20.06-3.444-3.45-15.283-57.65-19.715-57.65"/>
  <path fill="none" stroke="#2e2e2e" stroke-width="22.0852866" d="M1148.444 1425.328c9.091 0 26.403 4.48 31.519 9.59 1.753 1.752 19.725.96 23.292 2.743 2.612 1.303 14.4 3.369 28.222 5.038 21.84 2.636 48.764 4.3 52.62.439 2.059-2.054 10.28 2.06 12.333 0 5.909-5.903 32.3-3.52 36.995-8.22 7.818-7.813 64.52-19.24 78.103-26.031 6.209-3.105 64.382-64.665 70.615-64.665"/>
  <path fill="#fff" stroke="#2e2e2e" stroke-width="15.26" d="M4515.23 4564.73c-54.93 14.87-105.55 9.48-156.14 9.17l7.06 207.96h139.82l9.26-217.13Z" transform="matrix(1.21196 0 0 1 -4323.834 -3128.48)"/>
  <path fill="#fff" stroke="#2e2e2e" stroke-width="20.64" d="M4716.52 4576.51c-66.76 3.32-128.24 10.56-191.58-9.07l-16.16 206.23c59.14 15.5 132.36 7.57 191.5 0 2.19-59 14.05-142.37 16.24-197.16Z" transform="matrix(.96896 0 0 1.00928 -3220.384 -3173.56)"/>
  <path fill="#e6c777" stroke="#2e2e2e" stroke-width="20.42" d="M768.376 2392.55c0-340.83 183.87-617.57 410.36-617.57s410.37 276.74 410.37 617.57v-2.8c-123.72 97.9-266.31 153.8-418.06 153.8-145.5 0-282.58-51.4-402.67-141.9"/>
  <ellipse cx="2584.69" cy="7367.37" fill="#fff" stroke="#2e2e2e" stroke-width="27.72" rx="151.418" ry="145.106" transform="matrix(.68398 0 0 .78533 -752.575 -5064.73)"/>
  <ellipse cx="2589.42" cy="7361.48" fill="#2e2e2e" stroke="#2e2e2e" stroke-width="22.82" rx="61.514" ry="57.204" transform="matrix(.83101 0 0 .95414 -1131.793 -6309.56)"/>
  <ellipse cx="2584.69" cy="7367.37" fill="#fff" stroke="#2e2e2e" stroke-width="27.72" rx="151.418" ry="145.106" transform="matrix(.68398 0 0 .78533 -441.106 -5071.49)"/>
  <ellipse cx="2589.42" cy="7361.48" fill="#2e2e2e" stroke="#2e2e2e" stroke-width="22.82" rx="61.514" ry="57.204" transform="matrix(.83101 0 0 .95414 -820.324 -6316.32)"/>
</svg>
